<?xml version="1.0" encoding="UTF-8"?>
<svg id="Layer_2" data-name="Layer 2" xmlns="http://www.w3.org/2000/svg" viewBox="0 0 389.61 408.85">
  <defs>
    <style>
      .cls-1 {
        fill: #eeeae3;
        stroke-width: 0px;
      }
    </style>
  </defs>
  <g id="Layer_1-2" data-name="Layer 1">
    <g>
      <path class="cls-1" d="M322.92,337.59c0-4.64-3.78-8.42-8.42-8.42-.82,0-1.63.12-2.41.35-6.48-9.64-19.55-14.14-41.01-14.14-35.67,0-44.11,12.62-46.1,29.74h-38.59c-.7-5.95-2.16-11.37-5.28-15.87-6.53-9.45-19.48-13.85-40.77-13.85h-.05c-21.45,0-34.53,4.51-41,14.15-.78-.23-1.58-.35-2.41-.35-4.64,0-8.42,3.78-8.41,8.42,0,3.63,2.33,6.81,5.68,7.96-.56,5.16-.56,10.71-.56,16.56,0,25.76,20.97,46.71,46.72,46.71h.02c12.48,0,24.21-4.87,33.03-13.7,8.82-8.83,13.68-20.56,13.67-33.04,0-2.22,0-4.42-.04-6.58h37.41c-.03,2.16-.03,4.35-.03,6.57,0,25.76,20.96,46.72,46.72,46.72s46.72-20.96,46.72-46.72c0-5.85,0-11.4-.57-16.56,3.35-1.15,5.67-4.33,5.67-7.96ZM102,362.14c0-5.99,0-11.65.62-16.59l.84-6.66h-.04s2.48-4.06,2.48-4.06c2.07-3.39,5.2-5.8,9.85-7.59,5.86-2.26,14.12-3.41,24.54-3.41,10.02,0,18.05,1.05,23.86,3.14,4.61,1.66,7.89,3.97,10.03,7.07,4.42,6.39,4.42,16.44,4.42,28.08,0,21.12-17.17,38.31-38.29,38.32-21.12,0-38.31-17.17-38.32-38.29ZM308.76,345.48c.63,4.94.63,10.6.63,16.59,0,21.12-17.17,38.31-38.29,38.32-21.12,0-38.31-17.17-38.32-38.29,0-11.64,0-21.69,4.41-28.08,2.14-3.11,5.42-5.42,10.03-7.08,5.81-2.09,13.83-3.15,23.86-3.16,10.42,0,18.67,1.14,24.54,3.4,4.65,1.79,7.78,4.2,9.85,7.59l2.48,4.05h-.04s.85,6.66.85,6.66Z"/>
      <path class="cls-1" d="M383.41,201.2c-4.2-2.91-9.3-2.72-13.92-1.12-.96-.91-2.02-1.77-3.18-2.56-3.45-2.36-7.42-3.7-11.56-4.3-2.08-3.57-4.68-6.89-7.86-9.82,3.18-7.02,5.2-14.66,4.79-22.03-.33-5.83-2.1-12-6.64-15.97-5.93-5.17-13.74-4.97-20.55-1.76-6.14,2.89-11.38,8.05-16.13,12.8-.31.31-.61.64-.92.96.9-3.82,1.51-7.7,1.82-11.6,4.27-10.61,7.02-21.85,8.05-33.38.15-1.71-.86-3.71-2.25-4.86,2.43-6.05,2.77-13-1.13-18.57-4.48-6.4-12.11-7.63-19.1-4.81-1.95.79-3.88,1.68-5.79,2.64-1.69-1.57-3.51-2.96-5.46-4.13.84-5.53.98-11.11.06-16.49-2.33-13.66-14.58-23.62-25.74-30.49-.17-.11-.35-.2-.52-.31-2.01-12.1-6.99-24.27-17.16-31.69-12.09-8.82-26.34-.04-36.83,7.15-14.28,9.78-26.53,22.67-35.96,37.38-.84-1.51-1.75-2.99-2.73-4.43-.27-2.13-.7-4.25-1.34-6.33-1.68-5.5-4.68-10.37-9.31-13.83-5.29-3.96-12.06-4.98-18.5-4.25-13.57,1.54-26.74,7.03-38.34,14.08-1.41.86-2.81,1.74-4.2,2.65-1.99,1.02-3.97,2.04-5.93,3.03-12.55,6.35-24.85,13.29-36.07,21.82-20.21,15.37-38.27,36.98-42.33,62.8-1.78,11.34-.71,23.95,6.83,32.92-2.67,4.93-5.11,9.98-7.28,15.14-6.42,15.28-9.94,31.75-7.37,48.3,2.26,14.56,9.83,28.25,21.82,36.96,5.55,4.03,11.91,6.65,18.57,8.13-.41,2.93-.68,5.91-.81,8.91-.34,8.21.16,17.11,3.75,24.62,3.46,7.25,10.32,11.85,17.59,14.68,13.61,5.29,29.59,4.08,43.1-.86,9.78-3.58,18.82-8.88,27.01-15.28,2.81.56,5.7.48,8.61-.09,7.88-1.54,14.68-6.89,20.81-11.77,7.99-6.36,15.33-13.86,21.7-22.18.56.75,1.17,1.48,1.86,2.18,4.69,4.72,11.31,6.65,17.8,7.02,13.54.77,27.24-5.58,38.39-12.66,10.01-6.35,18.87-14.42,26.16-23.74.75.17,1.5.3,2.26.4-.26,2.43-.47,4.86-.56,7.29-.06,1.53-.07,3.08-.02,4.63-2.69,5.03-4.67,10.39-5.48,15.94-.97,6.67-.27,13.73,3.66,19.41,3.57,5.18,9.05,8.7,15.21,9.99,5.52,1.16,11.06.97,16.5-.04-.22,1.08-.39,2.16-.49,3.25-.61,6.99,3.6,13.33,9.72,16.46,7.29,3.73,15.33,2.53,23.04,1.03,3.25-.63,5.15-4.42,4.49-7.49,1.43-.12,2.86-.37,4.27-.77,6.58-1.86,12.17-6.4,16.5-11.55,4.78-5.69,9.03-12,11.55-19.03,1.89-5.28,2.17-11.35.77-16.85,5.41-5.3,10.16-11.25,13.83-17.84,3.2-5.76,5.61-12.06,6.58-18.59,1.1-7.44,1.3-16.32-5.61-21.1ZM377.08,215.96c-.15-1.44-.4-2.86-.76-4.24.04,0,.07-.01.05-.04-.07-.11-.09-.15-.09-.16,0,0,0,0,0,0,.03.04.34.5.38.67.33,1.17.44,2.45.43,3.78ZM54.12,125.59c.52.86,1.07,1.72,1.66,2.54,4.71,6.53,10.74,11.09,17.51,14.19-1,1.87-1.96,3.77-2.87,5.69-6.05,3.18-12.33,5.89-18.96,7.33-6.38,1.39-13.58,1.13-19.49-1.66,6.37-10.1,13.81-19.54,22.15-28.09ZM79.88,63c5.89-5.86,12.38-11.15,19.31-15.76,4-1.98,8.01-3.93,12.08-5.75,5.23-2.34,10.98-4.55,16.73-5.02,10.43-.85,18.52,4.14,24.33,11.63.18,4.29-.24,7.58-1.22,11.72-.86,3.65-1.93,7.27-3.21,10.8-1.38.66-2.74,1.33-4.1,2.01-.7.35-1.38.74-2.08,1.1-27.67-6.16-56.49,9.81-77.82,26.31-1.17.9-2.32,1.84-3.47,2.77-.17-14.77,9.1-29.53,19.45-39.81ZM152.66,237.66c1.3,2.51,1.58,4.97,1.44,7.72-.3,5.65-3.09,11.31-6.09,16.15-2.06,3.32-4.4,6.54-6.96,9.62-1.15.58-2.33,1.12-3.54,1.56-2.48.9-5.22,1.65-7.89,1.52-.9-.05-1.84-.12-2.43-.53-1.07-.74.03.14-.62-.9.44.71-.04-.78-.03-.26-.49-5.13,2.71-10.25,5.32-15.04,3.05-5.6,6.47-10.99,10.2-16.15.38-.53.79-1.05,1.18-1.58,1.98-1.56,3.93-3.14,5.84-4.7.33-.27.64-.54.97-.81,1.02.89,1.86,1.98,2.6,3.41ZM212.83,183.56c1.43-.71,2.88-1.39,4.34-2.04-.37,2.06-.62,4.13-.75,6.21-1.36-1.26-2.55-2.66-3.59-4.17ZM204.78,84.72c2.53,1.45,4.68,3.6,6.31,6.03.6,2.28.96,4.59,1.11,6.94-9.99,7.41-20.72,13.83-31.91,19.22-.26-2.99-.74-5.95-1.47-8.87-.94-3.73-2.31-7.22-4.07-10.45.25-1.45.47-2.9.66-4.36.11-.17.21-.35.32-.52,2.17-3.42,4.56-6.68,7.12-9.8,7.56-1.75,15.51-1.89,21.94,1.81ZM194.5,123.88c4.7-2.52,9.27-5.24,13.74-8.13-2.03,3.05-3.87,6.23-5.49,9.51-5.65,3.5-11.68,6.29-17.95,8.14-1.61-.58-3.25-1.03-4.91-1.35.05-.38.09-.75.14-1.13,4.9-2.16,9.73-4.5,14.47-7.04ZM179.86,147.48c1.29-.19,2.57-.42,3.84-.7,2.9,1.57,5.25,3.73,6.8,5.87.14.19.26.38.39.57-.8,0-1.59,0-2.37-.03-2.68-2.23-5.58-4.14-8.66-5.71ZM166.86,122.76c.32-.72.63-1.45.94-2.18.02.6.02,1.2.02,1.81-.32.13-.64.25-.96.37ZM146.45,157.16c2.6-.77,5.29-1.32,8.08-1.62.81,1.58,1.7,3.13,2.67,4.62-1.52,2.91-3.16,5.76-4.9,8.54-3.06-2.41-6.71-4.11-10.6-5.1,1.61-2.13,3.18-4.28,4.74-6.45ZM240.59,180.42c-1.77-2.08-4.69-3.12-7.74-1.34-.83.49-1.67.98-2.5,1.49.31-1.24.65-2.49,1.02-3.73,3.64-.75,7.48-1.05,11.1-.5-.64,1.35-1.26,2.72-1.87,4.08ZM120.82,128.88c5.72-5,11.15-10.4,16.13-16.18.19,6.18,1.73,12.48,4.64,17.96-8.57,2.04-17.27,3.49-25.99,4.28-.75.07-1.52.13-2.29.19,2.55-2.03,5.07-4.11,7.52-6.25ZM93.32,209.05c.84-1.66,1.73-3.29,2.64-4.91,5.04.58,10.3-1.96,14.32-5.13,5.22-4.11,9.68-9.43,14.1-14.37,2.78-3.1,5.5-6.27,8.17-9.48,1.92-.12,3.84.02,5.74.48,2.64.64,4.99,1.74,6.77,3.46-2.22,2.87-4.55,5.65-7.02,8.31-8.8,9.5-19.45,19.21-32.04,23.2-4.59,1.45-9.35,2.08-14,1.11.44-.9.88-1.79,1.33-2.68ZM160.4,181.65c-.12-.55-.26-1.09-.41-1.61,2.17-3.17,4.21-6.42,6.1-9.75,1.77,1.46,3.67,2.76,5.72,3.84,1.59.83,3.22,1.52,4.89,2.09-2.65,3.19-5.4,6.31-8.26,9.32-2.57,2.71-5.23,5.35-7.96,7.92.72-3.83.78-7.78-.08-11.8ZM207.5,196.52c.07.06.13.13.2.19-.1.09-.2.17-.3.26.03-.15.07-.3.1-.45ZM253.49,183.73c-.21,0-.41,0-.62.01.1-.21.19-.42.29-.63.12.2.22.41.33.61ZM223.06,162.08c-1.95.49-3.91.95-5.88,1.36-2.49.51-4.94.94-7.4,1.29.3-.5.61-1,.9-1.51.03-.05.06-.1.09-.16,4.85-1.38,9.57-3.16,14.01-5.17-.59,1.39-1.17,2.78-1.72,4.19ZM234.5,48.35c1.45.05,1.14,0,2.53.34.45.11.9.24,1.34.39.18.06.32.11.43.15.02.02.1.07.29.17,1.71.89,3,2.02,4.04,3.89,4.75,8.52-2.58,18.58-8.79,25.01-3.29,3.41-6.73,6.67-10.29,9.8-.4-.84-.83-1.67-1.29-2.47-.68-2.15-1.51-4.26-2.57-6.29-3.88-7.5-10.22-12.71-17.61-15.75,5.98-4.89,12.46-9.41,19.4-12.45,4.05-1.78,8.33-2.93,12.52-2.79ZM137.84,90.58c-1.16,1.8-2.38,3.56-3.65,5.3-.41.34-.83.68-1.24,1.02-12.69,10.52-24.6,22.01-35.6,34.3-.13.14-.25.28-.38.42-1.47,1.04-2.96,2.07-4.46,3.08,8.08-12.04,17.97-22.92,28.93-32.17,5.17-4.36,10.66-8.34,16.4-11.94ZM78.67,177.34c5.57-10.6,13.03-20.19,20.8-29.32,7.26.32,14.57-.13,21.43-.95,4.68-.56,9.32-1.27,13.94-2.14-7.58,4.89-14.47,10.43-20.04,15.47-6.92,6.24-13.24,13.2-18.87,20.66-3.59,2.89-7.11,5.86-10.53,8.95-3,2.71-5.92,5.53-8.75,8.46-1.46-3.12-2.32-6.37-2.72-9.7,1.18-3.91,2.82-7.75,4.74-11.42ZM87.22,223.48c2.04.59,4.15,1.02,6.31,1.25,8,.85,16.02-1.5,23.21-4.83,10.92-5.04,20.68-13.2,29.02-22.14-.47,1.01-.97,1.98-1.49,2.91-2.44,4.37-5.42,8.49-8.73,12.38-10.24,6.54-21.7,12.02-33.89,13.1-4.89.43-10.13.41-14.89-1.07.15-.54.29-1.07.46-1.6ZM160.7,227.11c-.34-.4-.69-.79-1.05-1.17,8.55-7.76,16.62-16.09,24.13-24.9,3.57-2.51,7.22-4.92,10.92-7.21.02.41.05.82.06,1.22-.21.85-.42,1.7-.64,2.55-5.12,19.25-14.78,37.11-27.87,52.04.05-.32.12-.64.17-.96,1.07-7.81-.64-15.43-5.72-21.57ZM239.05,231.25c-.16-2.43-.04-5.06.28-7.31.38-2.66.97-5.42,1.7-8.22,1.46-.08,2.93-.25,4.39-.47.4-.06.79-.14,1.19-.2.09,1.42.32,2.79.69,4.1-.04.08-.09.16-.13.24-2.34,4.18-5.07,8.15-8.12,11.87ZM279.45,170.58c-3.73,4.21-8.05,8.39-12.78,12.07-.93-3.02-2.32-5.89-4.26-8.42-.94-1.23-1.99-2.36-3.11-3.4,2.61-4.81,5.4-9.53,8.37-14.13,8.66-5.38,16.79-11.69,24.13-18.75,1.66-1.59,3.26-3.24,4.83-4.92.31,3.36.37,6.74.17,10.1-4.29,10.01-10.16,19.34-17.34,27.45ZM290.35,110.48c-3.88,2.8-7.4,6.29-10.46,9.66-7.69,8.48-14.77,17.57-21.11,27.12-3.88,2.32-7.87,4.45-11.96,6.38-2.56,1.21-5.16,2.32-7.8,3.35,1.95-3.98,4.09-7.86,6.41-11.62,11.1-8.66,20.38-19.56,27.19-31.88.79-.68,1.58-1.36,2.39-2.02,3.64-2.99,7.48-5.73,11.44-8.28,1.51,2.43,2.81,4.95,3.91,7.28ZM263.07,104.69c-.12.23-.25.45-.37.68-10.37,9.08-19.35,19.66-26.73,31.28-4.14,3.07-8.54,5.81-13.19,8.16-1.12.57-2.28,1.11-3.46,1.64,3.48-7.86,6.21-16.04,7.77-24.48,5.43-5.38,10.27-11.32,14.39-17.57,1.21-1.84,2.35-3.73,3.44-5.65,7.05-3.81,15.28-6.81,23.52-7.13-1.45,4.57-3.29,8.98-5.39,13.07ZM212.69,41.59c-9.31,4.83-18.03,11.65-25.82,18.82-.62-.01-1.24-.03-1.87-.02-2.56.05-5.1.27-7.62.62,4.82-4.79,10.08-9.12,15.9-12.67,7.36-4.49,15.54-7.67,24.05-8.93-1.61.68-3.16,1.41-4.64,2.18ZM80.17,103.8c12.28-8.29,27.38-16.28,42.53-18.24-4.97,3.59-9.74,7.45-14.28,11.55-10.56,9.55-19.85,20.55-27.59,32.49-.39.61-.79,1.23-1.18,1.84-6.23-2.63-11.58-6.79-15.13-13.17-.31-.56-.6-1.13-.88-1.7,5.24-4.6,10.75-8.88,16.53-12.77ZM71.97,231.35c.28.23.58.44.87.65-.03.93-.03,1.85.02,2.78.3,5.88,2.27,11.34,6,15.58-7.13,2.11-14.74,3.5-22.2,3.6,2.79-9.21,6.95-17.73,12.09-25.65,1,1.08,2.06,2.11,3.22,3.03ZM87.03,240.28c-.42-.74-.75-1.54-.99-2.37,3.14.71,6.38,1.07,9.63,1.13,3.29.06,6.55-.16,9.78-.61-4.02,2.43-8.17,4.63-12.43,6.57-2.48-.89-4.65-2.37-5.99-4.73ZM191.37,250.92c5.36-9.01,9.6-18.67,12.38-28.64,5.31-5.5,11.25-10.31,17.7-14.34,1.02,1.31,2.19,2.51,3.53,3.54,1.13.87,2.31,1.59,3.54,2.17-.59,2.47-1.09,4.95-1.47,7.42-.99,6.56-1.01,14.36,1.52,20.77-1.55,1.29-3.14,2.55-4.79,3.71-4.93,3.46-10.34,6.69-16.04,8.71-4.77,1.69-11.17,3.15-14.89-.66-.54-.55-.98-1.16-1.34-1.81-.06-.29-.1-.58-.14-.87ZM261.59,219.16c1.54-3.33,2.86-6.76,3.9-10.25.81-.39,1.61-.79,2.41-1.21-.38,4.5-2.6,8.8-5.08,12.71-.43-.38-.84-.79-1.24-1.24ZM302.67,183.06c5.88-.79,11.86-.63,17.69.66,3.48.77,6.85,1.93,9.98,3.51-4.65,7.02-10.74,13.16-17.51,18.43-2.43,1.6-4.8,3.3-7.09,5.08-3.09,2.03-6.25,3.9-9.43,5.6-3.29,1.77-7.15,3.8-11.18,5.37,3.61-13.75,9.54-26.89,17.54-38.65ZM357.51,238.36c1.85-5.17,3.02-10.62,3.43-16.08,1.25-1.36,2.55-2.74,3.89-4.05.36,6.9-3.59,14.53-7.32,20.13ZM284.01,260.88c.53-2.76,1.86-5.58,3.12-8.09,2.37-4.73,5.14-9.27,8.25-13.55,2.86-3.93,6.08-7.65,9.58-11.1,4.96-3.14,10.2-5.71,15.5-7.58,9.21-3.25,18.37-4.67,28.08-4.25.01.25.03.49.04.74-8.31,9.24-15.59,19.47-21.51,30.38-1.41,2.6-2.72,5.25-3.97,7.93-1.97,1.73-3.85,3.56-5.63,5.47-2.76,2.97-5.33,6.15-7.65,9.5-.63.28-1.27.56-1.9.82-2.67,1.09-5.59,1.91-8.45,2.22-7.15-1.69-12.58-5.82-15.46-12.49ZM323.95,159.22c3.26-2.81,7.43-6.14,11.82-4.96-.07,0,.19.14.38.23.18.14.53.41.63.51.11.1.43.53.56.68.19.29.37.6.53.9.56,1.05,1.06,3.32,1.14,4.78.27,4.71-.69,8.37-2.33,13.17-.17.48-.37.95-.55,1.43-7.2-3.68-15.14-5.56-23.23-5.9,3.46-3.83,7.15-7.46,11.06-10.84ZM302.27,95.28c.17.01.45.09.49.1.56.25.59.52.83.91.84,1.35.92,2.94.31,5.06-.36,1.26-.88,2.5-1.51,3.71-.2.03-.4.06-.59.1-.39-.81-.78-1.61-1.19-2.41-1.03-1.99-2.16-3.98-3.39-5.9,1.17-.61,2.38-1.13,3.61-1.39.82-.17.77-.23,1.44-.18ZM268.07,61.06c3.14,4.73,3.82,9.82,3.41,15.41-.06.83-.17,1.65-.26,2.48-.32-.01-.64-.03-.97-.03-5.83-.04-11.77,1.02-17.5,2.82,3.45-9.74,5.47-19.99,5.72-30.27,3.58,2.73,7.14,5.89,9.6,9.59ZM211.44,20.68c4.18-2.76,8.76-5.87,13.55-7.42,1.86-.6,3.96-1.13,5.87-.43,2.42.89,4.42,3.09,6.03,5,2.73,3.24,4.67,7.03,6.04,11.06-7.83-2.41-16.08-3.29-24.38-2.37-7.54.84-14.86,2.81-21.76,5.78,4.54-4.28,9.44-8.19,14.66-11.63ZM22.34,120.4c5.14-19.2,18.29-35.19,33.71-47.4-3.34,5.8-5.88,12.03-7.09,18.62-1.27,6.94-1.35,14.25.15,21.18-9.98,9.57-18.89,20.28-26.44,31.87-3.54-7.33-2.36-16.75-.34-24.28ZM19.81,235.8c-13.72-22.37-5.69-49.52,5.84-71.22,9.02,4.56,19.73,5.14,29.67,2.88,2.93-.67,5.81-1.56,8.65-2.6-.65,2.28-1.23,4.58-1.68,6.89-1.01,5.15-1.4,10.46-1.06,15.68-2.31,8.76-2.81,17.9-.23,26.76.21.73.45,1.46.71,2.18-7.92,11.11-14.2,23.29-17.84,36.34-9.6-2.17-18.17-7.33-24.04-16.9ZM87.75,303.83c-10.01,1.17-25.04.13-31.33-9.1-3.7-5.43-3.54-13.35-3.36-19.64.08-2.8.34-5.58.73-8.34,3.85.1,7.69-.1,11.44-.57,9.96-1.25,19.64-4.01,28.89-7.86,4.31.67,8.79.51,13.04-.12.23-.03.46-.09.69-.13.77,10.4,4.95,20.72,10.64,29.17.64.95,1.32,1.88,2.04,2.78-9.71,6.87-20.98,12.43-32.78,13.81ZM254.29,231.96c.33-.48.65-.96.97-1.44.05.04.1.08.15.12-.37.44-.74.88-1.12,1.32ZM312.4,301.25c-1.02-.86-1.57-1.68-1.51-3.31.08-2.37,1.18-4.98,2.17-7.26.81,5.41,3.86,9.74,8.05,12.59-3.2.27-6.37-.04-8.71-2.02ZM348.53,284.18c-2.79,3.65-6.28,7.47-10.61,9.27-3.55,1.48-7.15,1.33-10.16-.72-.43-.29-.89-.72-1.19-1.11-.17-.23-.69-1.26-.85-1.91-.47-1.82-.2-3.77.23-5.62,10.57-3.11,20.65-8.33,28.62-13.84.68-.47,1.36-.95,2.03-1.43-.06.26-.1.52-.17.79-1.38,5.37-4.57,10.22-7.9,14.58Z"/>
    </g>
  </g>
</svg>